<svg version="1.2" baseProfile="tiny-ps" xmlns="http://www.w3.org/2000/svg" viewBox="0 0 1683 226" width="1683" height="226">
	<title>frontier_logo_white-svg</title>
	<style>
		tspan { white-space:pre }
		.s0 { fill: #026845 } 
	</style>
	<g id="Layer">
		<g id="Layer">
			<g id="Layer">
				<g id="Layer">
				</g>
				<g id="Layer">
				</g>
				<g id="Layer">
				</g>
				<g id="Layer">
				</g>
				<g id="Layer">
				</g>
				<g id="Layer">
				</g>
				<g id="Layer">
					<path id="fbpsa" fill-rule="evenodd" class="s0" d="m287.91 4.01h82.88c36.61 0 60.93 8.02 75.6 22.79c2.8 2.93 5.3 6.12 7.46 9.55c2.16 3.43 3.97 7.06 5.41 10.85c1.44 3.79 2.49 7.71 3.14 11.71c0.65 4 0.9 8.05 0.75 12.1c0 36.27-21.13 64.8-65.94 76.83l33.88 73.1h-67.22l-29.24-65.71h-27.05l-17.76 65.71h-60.66l58.75-216.92zm67.58 104.18c27.32 0 45.09-11.39 45.09-30.08c0-5.92-1.82-10.48-5.56-14.49c-5.01-4.92-14.03-7.29-27.14-7.29h-32.97l-14.3 51.86h34.88zm118.59 19.32c0 0.01 0 0.03 0 0.04c0 0.02 0 0.03 0 0.05v-0.09zm130.7-127.51c62.48 0 104.83 42.11 104.83 97.43c0 66.08-54.47 127.6-130.97 127.6c-61.92 0-104.54-42.18-104.56-97.48c0.03-66.15 54.48-127.55 130.7-127.55zm42.9 101.99c0 0.01 0 0.03 0 0.04c0 0.02 0 0.03 0 0.05v-0.09zm-47.91-47.94c-38.25 0-63.48 36.91-63.48 69.27c0 27.62 16.76 47.85 47.91 47.85c38.6 0 63.46-36.79 63.48-69.13c-0.02-27.68-16.78-47.99-47.91-47.99zm164.04-50.04h56.93l56.65 120.49l32.97-120.49h60.66l-59.11 216.92h-53.19l-59.48-124.77l-33.88 124.87h-60.75l59.2-217.01zm285.36 52.86h-65.94l14.3-52.59h192.27l-13.84 52.59h-66.03l-44.45 164.06h-61.39l45.09-164.06zm167.41-52.86h61.02l-59.2 216.92h-61.02l59.2-216.92zm87.8 0h176.15l-14.03 51.04h-115.49l-9.02 32.81h104.93l-12.75 47.39h-104.93l-9.29 34.36h117.31l-13.66 51.04h-177.79l58.57-216.65zm202.56 0h82.79c36.71 0 61.02 8.02 75.6 22.79c2.81 2.92 5.32 6.12 7.49 9.54c2.17 3.42 3.99 7.06 5.43 10.84c1.44 3.79 2.5 7.71 3.16 11.71c0.66 4 0.92 8.06 0.77 12.11c0 36.27-21.22 64.8-66.03 76.83l34.25 73.1h-67.22l-29.24-65.71h-27.05l-18.03 65.71h-60.75l58.84-216.92zm67.49 104.18c27.42 0 45.18-11.39 45.18-30.08c0-5.92-1.82-10.48-5.65-14.49c-4.92-4.92-13.94-7.29-27.05-7.29h-32.97l-14.3 51.86h34.79z" />
				</g>
				<g id="Layer">
					<path id="fbpsh" class="s0" d="m260.22 4.01c0.64 0 0.91 0.64 0.91 0.91l-8.38 30.72c-3.73 13.85-17.4 29.8-35.79 29.8h-146.82c-17.12 0-27.14 6.74-27.14 6.74c-0.91 0.64-1.82 0-1.55-0.91l8.38-31.35c6.92-26.7 16.85-35.91 37.07-35.91h173.33v0zm-28.87 77.74c0.55 0 1.18 0.27 0.91 0.64l-5.65 20.23c-6.56 23.97-21.13 40.29-42.26 40.29h-134.8c-17.12 0-27.69 6.74-27.69 6.74c-0.91 0.64-1.91 0-1.55-0.91l8.38-31.08c8.38-28.25 17.12-35.91 37.07-35.91h165.49l0.09 0zm-111.12 77.74c0.55 0 0.91 0.64 0.91 0.91l-6.56 24.24c-6.83 24.97-22.04 36.27-40.44 36.27h-72.23c-0.64 0-0.91-0.27-0.91-0.91l7.2-26.8c6.83-25.16 16.76-33.72 36.43-33.72h75.6v0z" />
				</g>
			</g>
		</g>
	</g>
</svg>